<svg height="1024" width="1024" xmlns="http://www.w3.org/2000/svg"><g fill="#fff"><path d="m361.4118 40.1569h10.0392v10.0392h-10.0392z"/><path d="m441.7255 60.2353h10.0392v10.0392h-10.0392z"/><path d="m491.9216 60.2353h10.0392v10.0392h-10.0392z"/><path d="m120.4706 80.3137h10.0392v10.0392h-10.0392z"/><path d="m130.5098 80.3137h10.0392v10.0392h-10.0392z"/><path d="m672.6275 80.3137h10.0392v10.0392h-10.0392z"/><path d="m963.7647 80.3137h10.0392v10.0392h-10.0392z"/><path d="m240.9412 100.3922h10.0392v10.0392h-10.0392z"/><path d="m702.7451 110.4314h10.0392v10.0392h-10.0392z"/><path d="m752.9412 110.4314h10.0392v10.0392h-10.0392z"/><path d="m893.4902 110.4314h10.0392v10.0392h-10.0392z"/><path d="m80.3137 120.4706h10.0392v10.0392h-10.0392z"/><path d="m220.8627 120.4706h10.0392v10.0392h-10.0392z"/><path d="m602.3529 120.4706h10.0392v10.0392h-10.0392z"/><path d="m893.4902 120.4706h10.0392v10.0392h-10.0392z"/><path d="m572.2353 130.5098h10.0392v10.0392h-10.0392z"/><path d="m592.3137 130.5098h10.0392v10.0392h-10.0392z"/><path d="m612.3922 130.5098h10.0392v10.0392h-10.0392z"/><path d="m662.5882 130.5098h10.0392v10.0392h-10.0392z"/><path d="m773.0196 130.5098h10.0392v10.0392h-10.0392z"/><path d="m602.3529 140.549h10.0392v10.0392h-10.0392z"/><path d="m833.2549 140.549h10.0392v10.0392h-10.0392z"/><path d="m552.1569 150.5882h10.0392v10.0392h-10.0392z"/><path d="m602.3529 150.5882h10.0392v10.0392h-10.0392z"/><path d="m783.0588 150.5882h10.0392v10.0392h-10.0392z"/><path d="m522.0392 160.6275h10.0392v10.0392h-10.0392z"/><path d="m602.3529 160.6275h10.0392v10.0392h-10.0392z"/><path d="m873.4118 160.6275h10.0392v10.0392h-10.0392z"/><path d="m321.2549 170.6667h10.0392v10.0392h-10.0392z"/><path d="m501.9608 170.6667h10.0392v10.0392h-10.0392z"/><path d="m522.0392 170.6667h10.0392v10.0392h-10.0392z"/><path d="m532.0784 170.6667h10.0392v10.0392h-10.0392z"/><path d="m552.1569 170.6667h10.0392v10.0392h-10.0392z"/><path d="m501.9608 180.7059h10.0392v10.0392h-10.0392z"/><path d="m752.9412 180.7059h10.0392v10.0392h-10.0392z"/><path d="m491.9216 190.7451h10.0392v10.0392h-10.0392z"/><path d="m501.9608 190.7451h10.0392v10.0392h-10.0392z"/><path d="m512 190.7451h10.0392v10.0392h-10.0392z"/><path d="m522.0392 190.7451h10.0392v10.0392h-10.0392z"/><path d="m672.6275 190.7451h10.0392v10.0392h-10.0392z"/><path d="m401.5686 200.7843h10.0392v10.0392h-10.0392z"/><path d="m391.5294 210.8235h10.0392v10.0392h-10.0392z"/><path d="m441.7255 210.8235h10.0392v10.0392h-10.0392z"/><path d="m471.8431 210.8235h10.0392v10.0392h-10.0392z"/><path d="m612.3922 210.8235h10.0392v10.0392h-10.0392z"/><path d="m642.5098 210.8235h10.0392v10.0392h-10.0392z"/><path d="m732.8627 210.8235h10.0392v10.0392h-10.0392z"/><path d="m883.451 210.8235h10.0392v10.0392h-10.0392z"/><path d="m923.6078 210.8235h10.0392v10.0392h-10.0392z"/><path d="m451.7647 220.8627h10.0392v10.0392h-10.0392z"/><path d="m512 220.8627h10.0392v10.0392h-10.0392z"/><path d="m803.1373 220.8627h10.0392v10.0392h-10.0392z"/><path d="m813.1765 220.8627h10.0392v10.0392h-10.0392z"/><path d="m361.4118 230.902h10.0392v10.0392h-10.0392z"/><path d="m381.4902 230.902h10.0392v10.0392h-10.0392z"/><path d="m441.7255 230.902h10.0392v10.0392h-10.0392z"/><path d="m702.7451 230.902h10.0392v10.0392h-10.0392z"/><path d="m742.902 230.902h10.0392v10.0392h-10.0392z"/><path d="m923.6078 230.902h10.0392v10.0392h-10.0392z"/><path d="m160.6275 240.9412h10.0392v10.0392h-10.0392z"/><path d="m431.6863 240.9412h10.0392v10.0392h-10.0392z"/><path d="m602.3529 240.9412h10.0392v10.0392h-10.0392z"/><path d="m632.4706 240.9412h10.0392v10.0392h-10.0392z"/><path d="m662.5882 240.9412h10.0392v10.0392h-10.0392z"/><path d="m672.6275 240.9412h10.0392v10.0392h-10.0392z"/><path d="m702.7451 240.9412h10.0392v10.0392h-10.0392z"/><path d="m732.8627 240.9412h10.0392v10.0392h-10.0392z"/><path d="m762.9804 240.9412h10.0392v10.0392h-10.0392z"/><path d="m200.7843 250.9804h10.0392v10.0392h-10.0392z"/><path d="m512 250.9804h10.0392v10.0392h-10.0392z"/><path d="m532.0784 250.9804h10.0392v10.0392h-10.0392z"/><path d="m612.3922 250.9804h10.0392v10.0392h-10.0392z"/><path d="m622.4314 250.9804h10.0392v10.0392h-10.0392z"/><path d="m642.5098 250.9804h10.0392v10.0392h-10.0392z"/><path d="m672.6275 250.9804h10.0392v10.0392h-10.0392z"/><path d="m732.8627 250.9804h10.0392v10.0392h-10.0392z"/><path d="m742.902 250.9804h10.0392v10.0392h-10.0392z"/><path d="m582.2745 261.0196h10.0392v10.0392h-10.0392z"/><path d="m592.3137 261.0196h10.0392v10.0392h-10.0392z"/><path d="m612.3922 261.0196h10.0392v10.0392h-10.0392z"/><path d="m622.4314 261.0196h10.0392v10.0392h-10.0392z"/><path d="m913.5686 261.0196h10.0392v10.0392h-10.0392z"/><path d="m361.4118 271.0588h10.0392v10.0392h-10.0392z"/><path d="m622.4314 271.0588h10.0392v10.0392h-10.0392z"/><path d="m813.1765 271.0588h10.0392v10.0392h-10.0392z"/><path d="m933.6471 271.0588h10.0392v10.0392h-10.0392z"/><path d="m562.1961 281.098h10.0392v10.0392h-10.0392z"/><path d="m612.3922 281.098h10.0392v10.0392h-10.0392z"/><path d="m913.5686 281.098h10.0392v10.0392h-10.0392z"/><path d="m351.3725 291.1373h10.0392v10.0392h-10.0392z"/><path d="m522.0392 291.1373h10.0392v10.0392h-10.0392z"/><path d="m532.0784 291.1373h10.0392v10.0392h-10.0392z"/><path d="m542.1176 291.1373h10.0392v10.0392h-10.0392z"/><path d="m692.7059 291.1373h10.0392v10.0392h-10.0392z"/><path d="m803.1373 291.1373h10.0392v10.0392h-10.0392z"/><path d="m281.098 301.1765h10.0392v10.0392h-10.0392z"/><path d="m331.2941 301.1765h10.0392v10.0392h-10.0392z"/><path d="m351.3725 301.1765h10.0392v10.0392h-10.0392z"/><path d="m401.5686 301.1765h10.0392v10.0392h-10.0392z"/><path d="m411.6078 301.1765h10.0392v10.0392h-10.0392z"/><path d="m471.8431 301.1765h10.0392v10.0392h-10.0392z"/><path d="m512 301.1765h10.0392v10.0392h-10.0392z"/><path d="m532.0784 301.1765h10.0392v10.0392h-10.0392z"/><path d="m612.3922 301.1765h10.0392v10.0392h-10.0392z"/><path d="m702.7451 301.1765h10.0392v10.0392h-10.0392z"/><path d="m722.8235 301.1765h10.0392v10.0392h-10.0392z"/><path d="m381.4902 311.2157h10.0392v10.0392h-10.0392z"/><path d="m391.5294 311.2157h10.0392v10.0392h-10.0392z"/><path d="m441.7255 311.2157h10.0392v10.0392h-10.0392z"/><path d="m512 311.2157h10.0392v10.0392h-10.0392z"/><path d="m813.1765 311.2157h10.0392v10.0392h-10.0392z"/><path d="m933.6471 311.2157h10.0392v10.0392h-10.0392z"/><path d="m451.7647 321.2549h10.0392v10.0392h-10.0392z"/><path d="m491.9216 321.2549h10.0392v10.0392h-10.0392z"/><path d="m582.2745 321.2549h10.0392v10.0392h-10.0392z"/><path d="m592.3137 321.2549h10.0392v10.0392h-10.0392z"/><path d="m622.4314 321.2549h10.0392v10.0392h-10.0392z"/><path d="m632.4706 321.2549h10.0392v10.0392h-10.0392z"/><path d="m672.6275 321.2549h10.0392v10.0392h-10.0392z"/><path d="m853.3333 321.2549h10.0392v10.0392h-10.0392z"/><path d="m321.2549 331.2941h10.0392v10.0392h-10.0392z"/><path d="m431.6863 331.2941h10.0392v10.0392h-10.0392z"/><path d="m451.7647 331.2941h10.0392v10.0392h-10.0392z"/><path d="m491.9216 331.2941h10.0392v10.0392h-10.0392z"/><path d="m532.0784 331.2941h10.0392v10.0392h-10.0392z"/><path d="m592.3137 331.2941h10.0392v10.0392h-10.0392z"/><path d="m602.3529 331.2941h10.0392v10.0392h-10.0392z"/><path d="m642.5098 331.2941h10.0392v10.0392h-10.0392z"/><path d="m672.6275 331.2941h10.0392v10.0392h-10.0392z"/><path d="m712.7843 331.2941h10.0392v10.0392h-10.0392z"/><path d="m732.8627 331.2941h10.0392v10.0392h-10.0392z"/><path d="m752.9412 331.2941h10.0392v10.0392h-10.0392z"/><path d="m311.2157 341.3333h10.0392v10.0392h-10.0392z"/><path d="m321.2549 341.3333h10.0392v10.0392h-10.0392z"/><path d="m532.0784 341.3333h10.0392v10.0392h-10.0392z"/><path d="m552.1569 341.3333h10.0392v10.0392h-10.0392z"/><path d="m572.2353 341.3333h10.0392v10.0392h-10.0392z"/><path d="m602.3529 341.3333h10.0392v10.0392h-10.0392z"/><path d="m612.3922 341.3333h10.0392v10.0392h-10.0392z"/><path d="m622.4314 341.3333h10.0392v10.0392h-10.0392z"/><path d="m632.4706 341.3333h10.0392v10.0392h-10.0392z"/><path d="m642.5098 341.3333h10.0392v10.0392h-10.0392z"/><path d="m672.6275 341.3333h10.0392v10.0392h-10.0392z"/><path d="m692.7059 341.3333h10.0392v10.0392h-10.0392z"/><path d="m953.7255 341.3333h10.0392v10.0392h-10.0392z"/><path d="m301.1765 351.3725h10.0392v10.0392h-10.0392z"/><path d="m441.7255 351.3725h10.0392v10.0392h-10.0392z"/><path d="m451.7647 351.3725h10.0392v10.0392h-10.0392z"/><path d="m461.8039 351.3725h10.0392v10.0392h-10.0392z"/><path d="m471.8431 351.3725h10.0392v10.0392h-10.0392z"/><path d="m522.0392 351.3725h10.0392v10.0392h-10.0392z"/><path d="m532.0784 351.3725h10.0392v10.0392h-10.0392z"/><path d="m542.1176 351.3725h10.0392v10.0392h-10.0392z"/><path d="m552.1569 351.3725h10.0392v10.0392h-10.0392z"/><path d="m562.1961 351.3725h10.0392v10.0392h-10.0392z"/><path d="m572.2353 351.3725h10.0392v10.0392h-10.0392z"/><path d="m582.2745 351.3725h10.0392v10.0392h-10.0392z"/><path d="m592.3137 351.3725h10.0392v10.0392h-10.0392z"/><path d="m642.5098 351.3725h10.0392v10.0392h-10.0392z"/><path d="m652.549 351.3725h10.0392v10.0392h-10.0392z"/><path d="m692.7059 351.3725h10.0392v10.0392h-10.0392z"/><path d="m702.7451 351.3725h10.0392v10.0392h-10.0392z"/><path d="m722.8235 351.3725h10.0392v10.0392h-10.0392z"/><path d="m863.3725 351.3725h10.0392v10.0392h-10.0392z"/><path d="m311.2157 361.4118h10.0392v10.0392h-10.0392z"/><path d="m321.2549 361.4118h10.0392v10.0392h-10.0392z"/><path d="m471.8431 361.4118h10.0392v10.0392h-10.0392z"/><path d="m501.9608 361.4118h10.0392v10.0392h-10.0392z"/><path d="m522.0392 361.4118h10.0392v10.0392h-10.0392z"/><path d="m542.1176 361.4118h10.0392v10.0392h-10.0392z"/><path d="m562.1961 361.4118h10.0392v10.0392h-10.0392z"/><path d="m582.2745 361.4118h10.0392v10.0392h-10.0392z"/><path d="m592.3137 361.4118h10.0392v10.0392h-10.0392z"/><path d="m602.3529 361.4118h10.0392v10.0392h-10.0392z"/><path d="m622.4314 361.4118h10.0392v10.0392h-10.0392z"/><path d="m642.5098 361.4118h10.0392v10.0392h-10.0392z"/><path d="m652.549 361.4118h10.0392v10.0392h-10.0392z"/><path d="m672.6275 361.4118h10.0392v10.0392h-10.0392z"/><path d="m682.6667 361.4118h10.0392v10.0392h-10.0392z"/><path d="m692.7059 361.4118h10.0392v10.0392h-10.0392z"/><path d="m712.7843 361.4118h10.0392v10.0392h-10.0392z"/><path d="m722.8235 361.4118h10.0392v10.0392h-10.0392z"/><path d="m732.8627 361.4118h10.0392v10.0392h-10.0392z"/><path d="m742.902 361.4118h10.0392v10.0392h-10.0392z"/><path d="m762.9804 361.4118h10.0392v10.0392h-10.0392z"/><path d="m180.7059 371.451h10.0392v10.0392h-10.0392z"/><path d="m321.2549 371.451h10.0392v10.0392h-10.0392z"/><path d="m361.4118 371.451h10.0392v10.0392h-10.0392z"/><path d="m431.6863 371.451h10.0392v10.0392h-10.0392z"/><path d="m451.7647 371.451h10.0392v10.0392h-10.0392z"/><path d="m461.8039 371.451h10.0392v10.0392h-10.0392z"/><path d="m471.8431 371.451h10.0392v10.0392h-10.0392z"/><path d="m522.0392 371.451h10.0392v10.0392h-10.0392z"/><path d="m532.0784 371.451h10.0392v10.0392h-10.0392z"/><path d="m542.1176 371.451h10.0392v10.0392h-10.0392z"/><path d="m562.1961 371.451h10.0392v10.0392h-10.0392z"/><path d="m572.2353 371.451h10.0392v10.0392h-10.0392z"/><path d="m622.4314 371.451h10.0392v10.0392h-10.0392z"/><path d="m702.7451 371.451h10.0392v10.0392h-10.0392z"/><path d="m712.7843 371.451h10.0392v10.0392h-10.0392z"/><path d="m732.8627 371.451h10.0392v10.0392h-10.0392z"/><path d="m873.4118 371.451h10.0392v10.0392h-10.0392z"/><path d="m321.2549 381.4902h10.0392v10.0392h-10.0392z"/><path d="m431.6863 381.4902h10.0392v10.0392h-10.0392z"/><path d="m461.8039 381.4902h10.0392v10.0392h-10.0392z"/><path d="m501.9608 381.4902h10.0392v10.0392h-10.0392z"/><path d="m532.0784 381.4902h10.0392v10.0392h-10.0392z"/><path d="m542.1176 381.4902h10.0392v10.0392h-10.0392z"/><path d="m552.1569 381.4902h10.0392v10.0392h-10.0392z"/><path d="m572.2353 381.4902h10.0392v10.0392h-10.0392z"/><path d="m582.2745 381.4902h10.0392v10.0392h-10.0392z"/><path d="m592.3137 381.4902h10.0392v10.0392h-10.0392z"/><path d="m612.3922 381.4902h10.0392v10.0392h-10.0392z"/><path d="m622.4314 381.4902h10.0392v10.0392h-10.0392z"/><path d="m642.5098 381.4902h10.0392v10.0392h-10.0392z"/><path d="m652.549 381.4902h10.0392v10.0392h-10.0392z"/><path d="m692.7059 381.4902h10.0392v10.0392h-10.0392z"/><path d="m722.8235 381.4902h10.0392v10.0392h-10.0392z"/><path d="m742.902 381.4902h10.0392v10.0392h-10.0392z"/><path d="m963.7647 381.4902h10.0392v10.0392h-10.0392z"/><path d="m281.098 391.5294h10.0392v10.0392h-10.0392z"/><path d="m291.1373 391.5294h10.0392v10.0392h-10.0392z"/><path d="m301.1765 391.5294h10.0392v10.0392h-10.0392z"/><path d="m371.451 391.5294h10.0392v10.0392h-10.0392z"/><path d="m441.7255 391.5294h10.0392v10.0392h-10.0392z"/><path d="m451.7647 391.5294h10.0392v10.0392h-10.0392z"/><path d="m471.8431 391.5294h10.0392v10.0392h-10.0392z"/><path d="m491.9216 391.5294h10.0392v10.0392h-10.0392z"/><path d="m512 391.5294h10.0392v10.0392h-10.0392z"/><path d="m522.0392 391.5294h10.0392v10.0392h-10.0392z"/><path d="m532.0784 391.5294h10.0392v10.0392h-10.0392z"/><path d="m562.1961 391.5294h10.0392v10.0392h-10.0392z"/><path d="m572.2353 391.5294h10.0392v10.0392h-10.0392z"/><path d="m592.3137 391.5294h10.0392v10.0392h-10.0392z"/><path d="m602.3529 391.5294h10.0392v10.0392h-10.0392z"/><path d="m662.5882 391.5294h10.0392v10.0392h-10.0392z"/><path d="m762.9804 391.5294h10.0392v10.0392h-10.0392z"/><path d="m140.549 401.5686h10.0392v10.0392h-10.0392z"/><path d="m381.4902 401.5686h10.0392v10.0392h-10.0392z"/><path d="m421.6471 401.5686h10.0392v10.0392h-10.0392z"/><path d="m451.7647 401.5686h10.0392v10.0392h-10.0392z"/><path d="m481.8824 401.5686h10.0392v10.0392h-10.0392z"/><path d="m501.9608 401.5686h10.0392v10.0392h-10.0392z"/><path d="m572.2353 401.5686h10.0392v10.0392h-10.0392z"/><path d="m602.3529 401.5686h10.0392v10.0392h-10.0392z"/><path d="m612.3922 401.5686h10.0392v10.0392h-10.0392z"/><path d="m642.5098 401.5686h10.0392v10.0392h-10.0392z"/><path d="m662.5882 401.5686h10.0392v10.0392h-10.0392z"/><path d="m672.6275 401.5686h10.0392v10.0392h-10.0392z"/><path d="m742.902 401.5686h10.0392v10.0392h-10.0392z"/><path d="m752.9412 401.5686h10.0392v10.0392h-10.0392z"/><path d="m773.0196 401.5686h10.0392v10.0392h-10.0392z"/><path d="m793.098 401.5686h10.0392v10.0392h-10.0392z"/><path d="m833.2549 401.5686h10.0392v10.0392h-10.0392z"/><path d="m60.2353 411.6078h10.0392v10.0392h-10.0392z"/><path d="m281.098 411.6078h10.0392v10.0392h-10.0392z"/><path d="m291.1373 411.6078h10.0392v10.0392h-10.0392z"/><path d="m391.5294 411.6078h10.0392v10.0392h-10.0392z"/><path d="m411.6078 411.6078h10.0392v10.0392h-10.0392z"/><path d="m471.8431 411.6078h10.0392v10.0392h-10.0392z"/><path d="m481.8824 411.6078h10.0392v10.0392h-10.0392z"/><path d="m501.9608 411.6078h10.0392v10.0392h-10.0392z"/><path d="m532.0784 411.6078h10.0392v10.0392h-10.0392z"/><path d="m542.1176 411.6078h10.0392v10.0392h-10.0392z"/><path d="m552.1569 411.6078h10.0392v10.0392h-10.0392z"/><path d="m572.2353 411.6078h10.0392v10.0392h-10.0392z"/><path d="m592.3137 411.6078h10.0392v10.0392h-10.0392z"/><path d="m612.3922 411.6078h10.0392v10.0392h-10.0392z"/><path d="m622.4314 411.6078h10.0392v10.0392h-10.0392z"/><path d="m682.6667 411.6078h10.0392v10.0392h-10.0392z"/><path d="m692.7059 411.6078h10.0392v10.0392h-10.0392z"/><path d="m762.9804 411.6078h10.0392v10.0392h-10.0392z"/><path d="m773.0196 411.6078h10.0392v10.0392h-10.0392z"/><path d="m281.098 421.6471h10.0392v10.0392h-10.0392z"/><path d="m361.4118 421.6471h10.0392v10.0392h-10.0392z"/><path d="m381.4902 421.6471h10.0392v10.0392h-10.0392z"/><path d="m401.5686 421.6471h10.0392v10.0392h-10.0392z"/><path d="m441.7255 421.6471h10.0392v10.0392h-10.0392z"/><path d="m451.7647 421.6471h10.0392v10.0392h-10.0392z"/><path d="m461.8039 421.6471h10.0392v10.0392h-10.0392z"/><path d="m481.8824 421.6471h10.0392v10.0392h-10.0392z"/><path d="m491.9216 421.6471h10.0392v10.0392h-10.0392z"/><path d="m512 421.6471h10.0392v10.0392h-10.0392z"/><path d="m522.0392 421.6471h10.0392v10.0392h-10.0392z"/><path d="m532.0784 421.6471h10.0392v10.0392h-10.0392z"/><path d="m542.1176 421.6471h10.0392v10.0392h-10.0392z"/><path d="m562.1961 421.6471h10.0392v10.0392h-10.0392z"/><path d="m582.2745 421.6471h10.0392v10.0392h-10.0392z"/><path d="m592.3137 421.6471h10.0392v10.0392h-10.0392z"/><path d="m602.3529 421.6471h10.0392v10.0392h-10.0392z"/><path d="m612.3922 421.6471h10.0392v10.0392h-10.0392z"/><path d="m622.4314 421.6471h10.0392v10.0392h-10.0392z"/><path d="m632.4706 421.6471h10.0392v10.0392h-10.0392z"/><path d="m652.549 421.6471h10.0392v10.0392h-10.0392z"/><path d="m702.7451 421.6471h10.0392v10.0392h-10.0392z"/><path d="m752.9412 421.6471h10.0392v10.0392h-10.0392z"/><path d="m762.9804 421.6471h10.0392v10.0392h-10.0392z"/><path d="m773.0196 421.6471h10.0392v10.0392h-10.0392z"/><path d="m783.0588 421.6471h10.0392v10.0392h-10.0392z"/><path d="m793.098 421.6471h10.0392v10.0392h-10.0392z"/><path d="m803.1373 421.6471h10.0392v10.0392h-10.0392z"/><path d="m913.5686 421.6471h10.0392v10.0392h-10.0392z"/><path d="m180.7059 431.6863h10.0392v10.0392h-10.0392z"/><path d="m261.0196 431.6863h10.0392v10.0392h-10.0392z"/><path d="m281.098 431.6863h10.0392v10.0392h-10.0392z"/><path d="m351.3725 431.6863h10.0392v10.0392h-10.0392z"/><path d="m371.451 431.6863h10.0392v10.0392h-10.0392z"/><path d="m381.4902 431.6863h10.0392v10.0392h-10.0392z"/><path d="m411.6078 431.6863h10.0392v10.0392h-10.0392z"/><path d="m441.7255 431.6863h10.0392v10.0392h-10.0392z"/><path d="m461.8039 431.6863h10.0392v10.0392h-10.0392z"/><path d="m491.9216 431.6863h10.0392v10.0392h-10.0392z"/><path d="m501.9608 431.6863h10.0392v10.0392h-10.0392z"/><path d="m512 431.6863h10.0392v10.0392h-10.0392z"/><path d="m522.0392 431.6863h10.0392v10.0392h-10.0392z"/><path d="m532.0784 431.6863h10.0392v10.0392h-10.0392z"/><path d="m542.1176 431.6863h10.0392v10.0392h-10.0392z"/><path d="m552.1569 431.6863h10.0392v10.0392h-10.0392z"/><path d="m562.1961 431.6863h10.0392v10.0392h-10.0392z"/><path d="m572.2353 431.6863h10.0392v10.0392h-10.0392z"/><path d="m592.3137 431.6863h10.0392v10.0392h-10.0392z"/><path d="m602.3529 431.6863h10.0392v10.0392h-10.0392z"/><path d="m622.4314 431.6863h10.0392v10.0392h-10.0392z"/><path d="m642.5098 431.6863h10.0392v10.0392h-10.0392z"/><path d="m652.549 431.6863h10.0392v10.0392h-10.0392z"/><path d="m662.5882 431.6863h10.0392v10.0392h-10.0392z"/><path d="m702.7451 431.6863h10.0392v10.0392h-10.0392z"/><path d="m773.0196 431.6863h10.0392v10.0392h-10.0392z"/><path d="m793.098 431.6863h10.0392v10.0392h-10.0392z"/><path d="m130.5098 441.7255h10.0392v10.0392h-10.0392z"/><path d="m150.5882 441.7255h10.0392v10.0392h-10.0392z"/><path d="m281.098 441.7255h10.0392v10.0392h-10.0392z"/><path d="m301.1765 441.7255h10.0392v10.0392h-10.0392z"/><path d="m351.3725 441.7255h10.0392v10.0392h-10.0392z"/><path d="m361.4118 441.7255h10.0392v10.0392h-10.0392z"/><path d="m381.4902 441.7255h10.0392v10.0392h-10.0392z"/><path d="m411.6078 441.7255h10.0392v10.0392h-10.0392z"/><path d="m471.8431 441.7255h10.0392v10.0392h-10.0392z"/><path d="m481.8824 441.7255h10.0392v10.0392h-10.0392z"/><path d="m491.9216 441.7255h10.0392v10.0392h-10.0392z"/><path d="m501.9608 441.7255h10.0392v10.0392h-10.0392z"/><path d="m512 441.7255h10.0392v10.0392h-10.0392z"/><path d="m522.0392 441.7255h10.0392v10.0392h-10.0392z"/><path d="m532.0784 441.7255h10.0392v10.0392h-10.0392z"/><path d="m542.1176 441.7255h10.0392v10.0392h-10.0392z"/><path d="m552.1569 441.7255h10.0392v10.0392h-10.0392z"/><path d="m572.2353 441.7255h10.0392v10.0392h-10.0392z"/><path d="m582.2745 441.7255h10.0392v10.0392h-10.0392z"/><path d="m592.3137 441.7255h10.0392v10.0392h-10.0392z"/><path d="m612.3922 441.7255h10.0392v10.0392h-10.0392z"/><path d="m622.4314 441.7255h10.0392v10.0392h-10.0392z"/><path d="m632.4706 441.7255h10.0392v10.0392h-10.0392z"/><path d="m642.5098 441.7255h10.0392v10.0392h-10.0392z"/><path d="m652.549 441.7255h10.0392v10.0392h-10.0392z"/><path d="m702.7451 441.7255h10.0392v10.0392h-10.0392z"/><path d="m762.9804 441.7255h10.0392v10.0392h-10.0392z"/><path d="m793.098 441.7255h10.0392v10.0392h-10.0392z"/><path d="m823.2157 441.7255h10.0392v10.0392h-10.0392z"/><path d="m140.549 451.7647h10.0392v10.0392h-10.0392z"/><path d="m220.8627 451.7647h10.0392v10.0392h-10.0392z"/><path d="m271.0588 451.7647h10.0392v10.0392h-10.0392z"/><path d="m421.6471 451.7647h10.0392v10.0392h-10.0392z"/><path d="m441.7255 451.7647h10.0392v10.0392h-10.0392z"/><path d="m471.8431 451.7647h10.0392v10.0392h-10.0392z"/><path d="m481.8824 451.7647h10.0392v10.0392h-10.0392z"/><path d="m491.9216 451.7647h10.0392v10.0392h-10.0392z"/><path d="m501.9608 451.7647h10.0392v10.0392h-10.0392z"/><path d="m512 451.7647h10.0392v10.0392h-10.0392z"/><path d="m522.0392 451.7647h10.0392v10.0392h-10.0392z"/><path d="m542.1176 451.7647h10.0392v10.0392h-10.0392z"/><path d="m552.1569 451.7647h10.0392v10.0392h-10.0392z"/><path d="m562.1961 451.7647h10.0392v10.0392h-10.0392z"/><path d="m572.2353 451.7647h10.0392v10.0392h-10.0392z"/><path d="m582.2745 451.7647h10.0392v10.0392h-10.0392z"/><path d="m592.3137 451.7647h10.0392v10.0392h-10.0392z"/><path d="m642.5098 451.7647h10.0392v10.0392h-10.0392z"/><path d="m672.6275 451.7647h10.0392v10.0392h-10.0392z"/><path d="m893.4902 451.7647h10.0392v10.0392h-10.0392z"/><path d="m210.8235 461.8039h10.0392v10.0392h-10.0392z"/><path d="m301.1765 461.8039h10.0392v10.0392h-10.0392z"/><path d="m321.2549 461.8039h10.0392v10.0392h-10.0392z"/><path d="m401.5686 461.8039h10.0392v10.0392h-10.0392z"/><path d="m431.6863 461.8039h10.0392v10.0392h-10.0392z"/><path d="m451.7647 461.8039h10.0392v10.0392h-10.0392z"/><path d="m471.8431 461.8039h10.0392v10.0392h-10.0392z"/><path d="m481.8824 461.8039h10.0392v10.0392h-10.0392z"/><path d="m491.9216 461.8039h10.0392v10.0392h-10.0392z"/><path d="m501.9608 461.8039h10.0392v10.0392h-10.0392z"/><path d="m512 461.8039h10.0392v10.0392h-10.0392z"/><path d="m522.0392 461.8039h10.0392v10.0392h-10.0392z"/><path d="m532.0784 461.8039h10.0392v10.0392h-10.0392z"/><path d="m542.1176 461.8039h10.0392v10.0392h-10.0392z"/><path d="m552.1569 461.8039h10.0392v10.0392h-10.0392z"/><path d="m562.1961 461.8039h10.0392v10.0392h-10.0392z"/><path d="m572.2353 461.8039h10.0392v10.0392h-10.0392z"/><path d="m582.2745 461.8039h10.0392v10.0392h-10.0392z"/><path d="m592.3137 461.8039h10.0392v10.0392h-10.0392z"/><path d="m652.549 461.8039h10.0392v10.0392h-10.0392z"/><path d="m692.7059 461.8039h10.0392v10.0392h-10.0392z"/><path d="m702.7451 461.8039h10.0392v10.0392h-10.0392z"/><path d="m773.0196 461.8039h10.0392v10.0392h-10.0392z"/><path d="m873.4118 461.8039h10.0392v10.0392h-10.0392z"/><path d="m140.549 471.8431h10.0392v10.0392h-10.0392z"/><path d="m321.2549 471.8431h10.0392v10.0392h-10.0392z"/><path d="m351.3725 471.8431h10.0392v10.0392h-10.0392z"/><path d="m411.6078 471.8431h10.0392v10.0392h-10.0392z"/><path d="m421.6471 471.8431h10.0392v10.0392h-10.0392z"/><path d="m451.7647 471.8431h10.0392v10.0392h-10.0392z"/><path d="m471.8431 471.8431h10.0392v10.0392h-10.0392z"/><path d="m481.8824 471.8431h10.0392v10.0392h-10.0392z"/><path d="m491.9216 471.8431h10.0392v10.0392h-10.0392z"/><path d="m501.9608 471.8431h10.0392v10.0392h-10.0392z"/><path d="m512 471.8431h10.0392v10.0392h-10.0392z"/><path d="m522.0392 471.8431h10.0392v10.0392h-10.0392z"/><path d="m532.0784 471.8431h10.0392v10.0392h-10.0392z"/><path d="m542.1176 471.8431h10.0392v10.0392h-10.0392z"/><path d="m552.1569 471.8431h10.0392v10.0392h-10.0392z"/><path d="m562.1961 471.8431h10.0392v10.0392h-10.0392z"/><path d="m572.2353 471.8431h10.0392v10.0392h-10.0392z"/><path d="m582.2745 471.8431h10.0392v10.0392h-10.0392z"/><path d="m592.3137 471.8431h10.0392v10.0392h-10.0392z"/><path d="m642.5098 471.8431h10.0392v10.0392h-10.0392z"/><path d="m652.549 471.8431h10.0392v10.0392h-10.0392z"/><path d="m662.5882 471.8431h10.0392v10.0392h-10.0392z"/><path d="m692.7059 471.8431h10.0392v10.0392h-10.0392z"/><path d="m712.7843 471.8431h10.0392v10.0392h-10.0392z"/><path d="m773.0196 471.8431h10.0392v10.0392h-10.0392z"/><path d="m783.0588 471.8431h10.0392v10.0392h-10.0392z"/><path d="m803.1373 471.8431h10.0392v10.0392h-10.0392z"/><path d="m853.3333 471.8431h10.0392v10.0392h-10.0392z"/><path d="m130.5098 481.8824h10.0392v10.0392h-10.0392z"/><path d="m381.4902 481.8824h10.0392v10.0392h-10.0392z"/><path d="m411.6078 481.8824h10.0392v10.0392h-10.0392z"/><path d="m451.7647 481.8824h10.0392v10.0392h-10.0392z"/><path d="m471.8431 481.8824h10.0392v10.0392h-10.0392z"/><path d="m481.8824 481.8824h10.0392v10.0392h-10.0392z"/><path d="m491.9216 481.8824h10.0392v10.0392h-10.0392z"/><path d="m501.9608 481.8824h10.0392v10.0392h-10.0392z"/><path d="m512 481.8824h10.0392v10.0392h-10.0392z"/><path d="m522.0392 481.8824h10.0392v10.0392h-10.0392z"/><path d="m532.0784 481.8824h10.0392v10.0392h-10.0392z"/><path d="m542.1176 481.8824h10.0392v10.0392h-10.0392z"/><path d="m552.1569 481.8824h10.0392v10.0392h-10.0392z"/><path d="m562.1961 481.8824h10.0392v10.0392h-10.0392z"/><path d="m592.3137 481.8824h10.0392v10.0392h-10.0392z"/><path d="m612.3922 481.8824h10.0392v10.0392h-10.0392z"/><path d="m712.7843 481.8824h10.0392v10.0392h-10.0392z"/><path d="m722.8235 481.8824h10.0392v10.0392h-10.0392z"/><path d="m773.0196 481.8824h10.0392v10.0392h-10.0392z"/><path d="m883.451 481.8824h10.0392v10.0392h-10.0392z"/><path d="m90.3529 491.9216h10.0392v10.0392h-10.0392z"/><path d="m100.3922 491.9216h10.0392v10.0392h-10.0392z"/><path d="m210.8235 491.9216h10.0392v10.0392h-10.0392z"/><path d="m331.2941 491.9216h10.0392v10.0392h-10.0392z"/><path d="m341.3333 491.9216h10.0392v10.0392h-10.0392z"/><path d="m381.4902 491.9216h10.0392v10.0392h-10.0392z"/><path d="m411.6078 491.9216h10.0392v10.0392h-10.0392z"/><path d="m431.6863 491.9216h10.0392v10.0392h-10.0392z"/><path d="m441.7255 491.9216h10.0392v10.0392h-10.0392z"/><path d="m451.7647 491.9216h10.0392v10.0392h-10.0392z"/><path d="m461.8039 491.9216h10.0392v10.0392h-10.0392z"/><path d="m471.8431 491.9216h10.0392v10.0392h-10.0392z"/><path d="m481.8824 491.9216h10.0392v10.0392h-10.0392z"/><path d="m491.9216 491.9216h10.0392v10.0392h-10.0392z"/><path d="m501.9608 491.9216h10.0392v10.0392h-10.0392z"/><path d="m512 491.9216h10.0392v10.0392h-10.0392z"/><path d="m522.0392 491.9216h10.0392v10.0392h-10.0392z"/><path d="m532.0784 491.9216h10.0392v10.0392h-10.0392z"/><path d="m552.1569 491.9216h10.0392v10.0392h-10.0392z"/><path d="m572.2353 491.9216h10.0392v10.0392h-10.0392z"/><path d="m582.2745 491.9216h10.0392v10.0392h-10.0392z"/><path d="m592.3137 491.9216h10.0392v10.0392h-10.0392z"/><path d="m602.3529 491.9216h10.0392v10.0392h-10.0392z"/><path d="m612.3922 491.9216h10.0392v10.0392h-10.0392z"/><path d="m622.4314 491.9216h10.0392v10.0392h-10.0392z"/><path d="m632.4706 491.9216h10.0392v10.0392h-10.0392z"/><path d="m672.6275 491.9216h10.0392v10.0392h-10.0392z"/><path d="m682.6667 491.9216h10.0392v10.0392h-10.0392z"/><path d="m692.7059 491.9216h10.0392v10.0392h-10.0392z"/><path d="m762.9804 491.9216h10.0392v10.0392h-10.0392z"/><path d="m773.0196 491.9216h10.0392v10.0392h-10.0392z"/><path d="m933.6471 491.9216h10.0392v10.0392h-10.0392z"/><path d="m271.0588 501.9608h10.0392v10.0392h-10.0392z"/><path d="m401.5686 501.9608h10.0392v10.0392h-10.0392z"/><path d="m411.6078 501.9608h10.0392v10.0392h-10.0392z"/><path d="m431.6863 501.9608h10.0392v10.0392h-10.0392z"/><path d="m461.8039 501.9608h10.0392v10.0392h-10.0392z"/><path d="m471.8431 501.9608h10.0392v10.0392h-10.0392z"/><path d="m481.8824 501.9608h10.0392v10.0392h-10.0392z"/><path d="m491.9216 501.9608h10.0392v10.0392h-10.0392z"/><path d="m501.9608 501.9608h10.0392v10.0392h-10.0392z"/><path d="m512 501.9608h10.0392v10.0392h-10.0392z"/><path d="m522.0392 501.9608h10.0392v10.0392h-10.0392z"/><path d="m532.0784 501.9608h10.0392v10.0392h-10.0392z"/><path d="m542.1176 501.9608h10.0392v10.0392h-10.0392z"/><path d="m572.2353 501.9608h10.0392v10.0392h-10.0392z"/><path d="m602.3529 501.9608h10.0392v10.0392h-10.0392z"/><path d="m612.3922 501.9608h10.0392v10.0392h-10.0392z"/><path d="m652.549 501.9608h10.0392v10.0392h-10.0392z"/><path d="m702.7451 501.9608h10.0392v10.0392h-10.0392z"/><path d="m742.902 501.9608h10.0392v10.0392h-10.0392z"/><path d="m762.9804 501.9608h10.0392v10.0392h-10.0392z"/><path d="m893.4902 501.9608h10.0392v10.0392h-10.0392z"/><path d="m240.9412 512h10.0392v10.0392h-10.0392z"/><path d="m351.3725 512h10.0392v10.0392h-10.0392z"/><path d="m381.4902 512h10.0392v10.0392h-10.0392z"/><path d="m401.5686 512h10.0392v10.0392h-10.0392z"/><path d="m431.6863 512h10.0392v10.0392h-10.0392z"/><path d="m441.7255 512h10.0392v10.0392h-10.0392z"/><path d="m461.8039 512h10.0392v10.0392h-10.0392z"/><path d="m471.8431 512h10.0392v10.0392h-10.0392z"/><path d="m481.8824 512h10.0392v10.0392h-10.0392z"/><path d="m491.9216 512h10.0392v10.0392h-10.0392z"/><path d="m501.9608 512h10.0392v10.0392h-10.0392z"/><path d="m512 512h10.0392v10.0392h-10.0392z"/><path d="m532.0784 512h10.0392v10.0392h-10.0392z"/><path d="m542.1176 512h10.0392v10.0392h-10.0392z"/><path d="m552.1569 512h10.0392v10.0392h-10.0392z"/><path d="m562.1961 512h10.0392v10.0392h-10.0392z"/><path d="m612.3922 512h10.0392v10.0392h-10.0392z"/><path d="m662.5882 512h10.0392v10.0392h-10.0392z"/><path d="m692.7059 512h10.0392v10.0392h-10.0392z"/><path d="m773.0196 512h10.0392v10.0392h-10.0392z"/><path d="m873.4118 512h10.0392v10.0392h-10.0392z"/><path d="m361.4118 522.0392h10.0392v10.0392h-10.0392z"/><path d="m371.451 522.0392h10.0392v10.0392h-10.0392z"/><path d="m421.6471 522.0392h10.0392v10.0392h-10.0392z"/><path d="m451.7647 522.0392h10.0392v10.0392h-10.0392z"/><path d="m461.8039 522.0392h10.0392v10.0392h-10.0392z"/><path d="m471.8431 522.0392h10.0392v10.0392h-10.0392z"/><path d="m481.8824 522.0392h10.0392v10.0392h-10.0392z"/><path d="m491.9216 522.0392h10.0392v10.0392h-10.0392z"/><path d="m522.0392 522.0392h10.0392v10.0392h-10.0392z"/><path d="m552.1569 522.0392h10.0392v10.0392h-10.0392z"/><path d="m582.2745 522.0392h10.0392v10.0392h-10.0392z"/><path d="m592.3137 522.0392h10.0392v10.0392h-10.0392z"/><path d="m622.4314 522.0392h10.0392v10.0392h-10.0392z"/><path d="m642.5098 522.0392h10.0392v10.0392h-10.0392z"/><path d="m682.6667 522.0392h10.0392v10.0392h-10.0392z"/><path d="m712.7843 522.0392h10.0392v10.0392h-10.0392z"/><path d="m773.0196 522.0392h10.0392v10.0392h-10.0392z"/><path d="m180.7059 532.0784h10.0392v10.0392h-10.0392z"/><path d="m281.098 532.0784h10.0392v10.0392h-10.0392z"/><path d="m331.2941 532.0784h10.0392v10.0392h-10.0392z"/><path d="m361.4118 532.0784h10.0392v10.0392h-10.0392z"/><path d="m381.4902 532.0784h10.0392v10.0392h-10.0392z"/><path d="m401.5686 532.0784h10.0392v10.0392h-10.0392z"/><path d="m451.7647 532.0784h10.0392v10.0392h-10.0392z"/><path d="m491.9216 532.0784h10.0392v10.0392h-10.0392z"/><path d="m501.9608 532.0784h10.0392v10.0392h-10.0392z"/><path d="m532.0784 532.0784h10.0392v10.0392h-10.0392z"/><path d="m562.1961 532.0784h10.0392v10.0392h-10.0392z"/><path d="m572.2353 532.0784h10.0392v10.0392h-10.0392z"/><path d="m582.2745 532.0784h10.0392v10.0392h-10.0392z"/><path d="m602.3529 532.0784h10.0392v10.0392h-10.0392z"/><path d="m612.3922 532.0784h10.0392v10.0392h-10.0392z"/><path d="m672.6275 532.0784h10.0392v10.0392h-10.0392z"/><path d="m692.7059 532.0784h10.0392v10.0392h-10.0392z"/><path d="m702.7451 532.0784h10.0392v10.0392h-10.0392z"/><path d="m722.8235 532.0784h10.0392v10.0392h-10.0392z"/><path d="m783.0588 532.0784h10.0392v10.0392h-10.0392z"/><path d="m933.6471 532.0784h10.0392v10.0392h-10.0392z"/><path d="m261.0196 542.1176h10.0392v10.0392h-10.0392z"/><path d="m301.1765 542.1176h10.0392v10.0392h-10.0392z"/><path d="m361.4118 542.1176h10.0392v10.0392h-10.0392z"/><path d="m381.4902 542.1176h10.0392v10.0392h-10.0392z"/><path d="m411.6078 542.1176h10.0392v10.0392h-10.0392z"/><path d="m451.7647 542.1176h10.0392v10.0392h-10.0392z"/><path d="m512 542.1176h10.0392v10.0392h-10.0392z"/><path d="m522.0392 542.1176h10.0392v10.0392h-10.0392z"/><path d="m562.1961 542.1176h10.0392v10.0392h-10.0392z"/><path d="m582.2745 542.1176h10.0392v10.0392h-10.0392z"/><path d="m592.3137 542.1176h10.0392v10.0392h-10.0392z"/><path d="m682.6667 542.1176h10.0392v10.0392h-10.0392z"/><path d="m773.0196 542.1176h10.0392v10.0392h-10.0392z"/><path d="m793.098 542.1176h10.0392v10.0392h-10.0392z"/><path d="m813.1765 542.1176h10.0392v10.0392h-10.0392z"/><path d="m100.3922 552.1569h10.0392v10.0392h-10.0392z"/><path d="m281.098 552.1569h10.0392v10.0392h-10.0392z"/><path d="m291.1373 552.1569h10.0392v10.0392h-10.0392z"/><path d="m351.3725 552.1569h10.0392v10.0392h-10.0392z"/><path d="m361.4118 552.1569h10.0392v10.0392h-10.0392z"/><path d="m371.451 552.1569h10.0392v10.0392h-10.0392z"/><path d="m381.4902 552.1569h10.0392v10.0392h-10.0392z"/><path d="m391.5294 552.1569h10.0392v10.0392h-10.0392z"/><path d="m401.5686 552.1569h10.0392v10.0392h-10.0392z"/><path d="m431.6863 552.1569h10.0392v10.0392h-10.0392z"/><path d="m441.7255 552.1569h10.0392v10.0392h-10.0392z"/><path d="m471.8431 552.1569h10.0392v10.0392h-10.0392z"/><path d="m512 552.1569h10.0392v10.0392h-10.0392z"/><path d="m522.0392 552.1569h10.0392v10.0392h-10.0392z"/><path d="m572.2353 552.1569h10.0392v10.0392h-10.0392z"/><path d="m662.5882 552.1569h10.0392v10.0392h-10.0392z"/><path d="m783.0588 552.1569h10.0392v10.0392h-10.0392z"/><path d="m381.4902 562.1961h10.0392v10.0392h-10.0392z"/><path d="m391.5294 562.1961h10.0392v10.0392h-10.0392z"/><path d="m401.5686 562.1961h10.0392v10.0392h-10.0392z"/><path d="m411.6078 562.1961h10.0392v10.0392h-10.0392z"/><path d="m491.9216 562.1961h10.0392v10.0392h-10.0392z"/><path d="m501.9608 562.1961h10.0392v10.0392h-10.0392z"/><path d="m512 562.1961h10.0392v10.0392h-10.0392z"/><path d="m522.0392 562.1961h10.0392v10.0392h-10.0392z"/><path d="m532.0784 562.1961h10.0392v10.0392h-10.0392z"/><path d="m562.1961 562.1961h10.0392v10.0392h-10.0392z"/><path d="m602.3529 562.1961h10.0392v10.0392h-10.0392z"/><path d="m622.4314 562.1961h10.0392v10.0392h-10.0392z"/><path d="m632.4706 562.1961h10.0392v10.0392h-10.0392z"/><path d="m60.2353 572.2353h10.0392v10.0392h-10.0392z"/><path d="m261.0196 572.2353h10.0392v10.0392h-10.0392z"/><path d="m301.1765 572.2353h10.0392v10.0392h-10.0392z"/><path d="m331.2941 572.2353h10.0392v10.0392h-10.0392z"/><path d="m381.4902 572.2353h10.0392v10.0392h-10.0392z"/><path d="m411.6078 572.2353h10.0392v10.0392h-10.0392z"/><path d="m431.6863 572.2353h10.0392v10.0392h-10.0392z"/><path d="m441.7255 572.2353h10.0392v10.0392h-10.0392z"/><path d="m461.8039 572.2353h10.0392v10.0392h-10.0392z"/><path d="m471.8431 572.2353h10.0392v10.0392h-10.0392z"/><path d="m481.8824 572.2353h10.0392v10.0392h-10.0392z"/><path d="m491.9216 572.2353h10.0392v10.0392h-10.0392z"/><path d="m501.9608 572.2353h10.0392v10.0392h-10.0392z"/><path d="m522.0392 572.2353h10.0392v10.0392h-10.0392z"/><path d="m532.0784 572.2353h10.0392v10.0392h-10.0392z"/><path d="m572.2353 572.2353h10.0392v10.0392h-10.0392z"/><path d="m582.2745 572.2353h10.0392v10.0392h-10.0392z"/><path d="m592.3137 572.2353h10.0392v10.0392h-10.0392z"/><path d="m632.4706 572.2353h10.0392v10.0392h-10.0392z"/><path d="m652.549 572.2353h10.0392v10.0392h-10.0392z"/><path d="m662.5882 572.2353h10.0392v10.0392h-10.0392z"/><path d="m742.902 572.2353h10.0392v10.0392h-10.0392z"/><path d="m833.2549 572.2353h10.0392v10.0392h-10.0392z"/><path d="m190.7451 582.2745h10.0392v10.0392h-10.0392z"/><path d="m210.8235 582.2745h10.0392v10.0392h-10.0392z"/><path d="m301.1765 582.2745h10.0392v10.0392h-10.0392z"/><path d="m341.3333 582.2745h10.0392v10.0392h-10.0392z"/><path d="m421.6471 582.2745h10.0392v10.0392h-10.0392z"/><path d="m431.6863 582.2745h10.0392v10.0392h-10.0392z"/><path d="m451.7647 582.2745h10.0392v10.0392h-10.0392z"/><path d="m461.8039 582.2745h10.0392v10.0392h-10.0392z"/><path d="m471.8431 582.2745h10.0392v10.0392h-10.0392z"/><path d="m481.8824 582.2745h10.0392v10.0392h-10.0392z"/><path d="m512 582.2745h10.0392v10.0392h-10.0392z"/><path d="m552.1569 582.2745h10.0392v10.0392h-10.0392z"/><path d="m572.2353 582.2745h10.0392v10.0392h-10.0392z"/><path d="m582.2745 582.2745h10.0392v10.0392h-10.0392z"/><path d="m642.5098 582.2745h10.0392v10.0392h-10.0392z"/><path d="m672.6275 582.2745h10.0392v10.0392h-10.0392z"/><path d="m732.8627 582.2745h10.0392v10.0392h-10.0392z"/><path d="m100.3922 592.3137h10.0392v10.0392h-10.0392z"/><path d="m180.7059 592.3137h10.0392v10.0392h-10.0392z"/><path d="m200.7843 592.3137h10.0392v10.0392h-10.0392z"/><path d="m291.1373 592.3137h10.0392v10.0392h-10.0392z"/><path d="m321.2549 592.3137h10.0392v10.0392h-10.0392z"/><path d="m331.2941 592.3137h10.0392v10.0392h-10.0392z"/><path d="m351.3725 592.3137h10.0392v10.0392h-10.0392z"/><path d="m371.451 592.3137h10.0392v10.0392h-10.0392z"/><path d="m381.4902 592.3137h10.0392v10.0392h-10.0392z"/><path d="m401.5686 592.3137h10.0392v10.0392h-10.0392z"/><path d="m411.6078 592.3137h10.0392v10.0392h-10.0392z"/><path d="m431.6863 592.3137h10.0392v10.0392h-10.0392z"/><path d="m481.8824 592.3137h10.0392v10.0392h-10.0392z"/><path d="m542.1176 592.3137h10.0392v10.0392h-10.0392z"/><path d="m552.1569 592.3137h10.0392v10.0392h-10.0392z"/><path d="m562.1961 592.3137h10.0392v10.0392h-10.0392z"/><path d="m572.2353 592.3137h10.0392v10.0392h-10.0392z"/><path d="m773.0196 592.3137h10.0392v10.0392h-10.0392z"/><path d="m240.9412 602.3529h10.0392v10.0392h-10.0392z"/><path d="m261.0196 602.3529h10.0392v10.0392h-10.0392z"/><path d="m291.1373 602.3529h10.0392v10.0392h-10.0392z"/><path d="m351.3725 602.3529h10.0392v10.0392h-10.0392z"/><path d="m361.4118 602.3529h10.0392v10.0392h-10.0392z"/><path d="m401.5686 602.3529h10.0392v10.0392h-10.0392z"/><path d="m451.7647 602.3529h10.0392v10.0392h-10.0392z"/><path d="m461.8039 602.3529h10.0392v10.0392h-10.0392z"/><path d="m471.8431 602.3529h10.0392v10.0392h-10.0392z"/><path d="m522.0392 602.3529h10.0392v10.0392h-10.0392z"/><path d="m532.0784 602.3529h10.0392v10.0392h-10.0392z"/><path d="m552.1569 602.3529h10.0392v10.0392h-10.0392z"/><path d="m622.4314 602.3529h10.0392v10.0392h-10.0392z"/><path d="m632.4706 602.3529h10.0392v10.0392h-10.0392z"/><path d="m642.5098 602.3529h10.0392v10.0392h-10.0392z"/><path d="m652.549 602.3529h10.0392v10.0392h-10.0392z"/><path d="m672.6275 602.3529h10.0392v10.0392h-10.0392z"/><path d="m250.9804 612.3922h10.0392v10.0392h-10.0392z"/><path d="m351.3725 612.3922h10.0392v10.0392h-10.0392z"/><path d="m361.4118 612.3922h10.0392v10.0392h-10.0392z"/><path d="m451.7647 612.3922h10.0392v10.0392h-10.0392z"/><path d="m481.8824 612.3922h10.0392v10.0392h-10.0392z"/><path d="m542.1176 612.3922h10.0392v10.0392h-10.0392z"/><path d="m552.1569 612.3922h10.0392v10.0392h-10.0392z"/><path d="m622.4314 612.3922h10.0392v10.0392h-10.0392z"/><path d="m642.5098 612.3922h10.0392v10.0392h-10.0392z"/><path d="m682.6667 612.3922h10.0392v10.0392h-10.0392z"/><path d="m230.902 622.4314h10.0392v10.0392h-10.0392z"/><path d="m250.9804 622.4314h10.0392v10.0392h-10.0392z"/><path d="m371.451 622.4314h10.0392v10.0392h-10.0392z"/><path d="m381.4902 622.4314h10.0392v10.0392h-10.0392z"/><path d="m441.7255 622.4314h10.0392v10.0392h-10.0392z"/><path d="m471.8431 622.4314h10.0392v10.0392h-10.0392z"/><path d="m481.8824 622.4314h10.0392v10.0392h-10.0392z"/><path d="m522.0392 622.4314h10.0392v10.0392h-10.0392z"/><path d="m532.0784 622.4314h10.0392v10.0392h-10.0392z"/><path d="m542.1176 622.4314h10.0392v10.0392h-10.0392z"/><path d="m612.3922 622.4314h10.0392v10.0392h-10.0392z"/><path d="m622.4314 622.4314h10.0392v10.0392h-10.0392z"/><path d="m632.4706 622.4314h10.0392v10.0392h-10.0392z"/><path d="m742.902 622.4314h10.0392v10.0392h-10.0392z"/><path d="m833.2549 622.4314h10.0392v10.0392h-10.0392z"/><path d="m281.098 632.4706h10.0392v10.0392h-10.0392z"/><path d="m381.4902 632.4706h10.0392v10.0392h-10.0392z"/><path d="m481.8824 632.4706h10.0392v10.0392h-10.0392z"/><path d="m501.9608 632.4706h10.0392v10.0392h-10.0392z"/><path d="m512 632.4706h10.0392v10.0392h-10.0392z"/><path d="m522.0392 632.4706h10.0392v10.0392h-10.0392z"/><path d="m542.1176 632.4706h10.0392v10.0392h-10.0392z"/><path d="m552.1569 632.4706h10.0392v10.0392h-10.0392z"/><path d="m662.5882 632.4706h10.0392v10.0392h-10.0392z"/><path d="m150.5882 642.5098h10.0392v10.0392h-10.0392z"/><path d="m240.9412 642.5098h10.0392v10.0392h-10.0392z"/><path d="m281.098 642.5098h10.0392v10.0392h-10.0392z"/><path d="m321.2549 642.5098h10.0392v10.0392h-10.0392z"/><path d="m471.8431 642.5098h10.0392v10.0392h-10.0392z"/><path d="m501.9608 642.5098h10.0392v10.0392h-10.0392z"/><path d="m512 642.5098h10.0392v10.0392h-10.0392z"/><path d="m722.8235 642.5098h10.0392v10.0392h-10.0392z"/><path d="m863.3725 642.5098h10.0392v10.0392h-10.0392z"/><path d="m401.5686 652.549h10.0392v10.0392h-10.0392z"/><path d="m461.8039 652.549h10.0392v10.0392h-10.0392z"/><path d="m491.9216 652.549h10.0392v10.0392h-10.0392z"/><path d="m622.4314 652.549h10.0392v10.0392h-10.0392z"/><path d="m632.4706 652.549h10.0392v10.0392h-10.0392z"/><path d="m712.7843 652.549h10.0392v10.0392h-10.0392z"/><path d="m742.902 652.549h10.0392v10.0392h-10.0392z"/><path d="m261.0196 662.5882h10.0392v10.0392h-10.0392z"/><path d="m301.1765 662.5882h10.0392v10.0392h-10.0392z"/><path d="m471.8431 662.5882h10.0392v10.0392h-10.0392z"/><path d="m491.9216 662.5882h10.0392v10.0392h-10.0392z"/><path d="m582.2745 662.5882h10.0392v10.0392h-10.0392z"/><path d="m632.4706 662.5882h10.0392v10.0392h-10.0392z"/><path d="m692.7059 662.5882h10.0392v10.0392h-10.0392z"/><path d="m732.8627 662.5882h10.0392v10.0392h-10.0392z"/><path d="m803.1373 662.5882h10.0392v10.0392h-10.0392z"/><path d="m150.5882 672.6275h10.0392v10.0392h-10.0392z"/><path d="m411.6078 672.6275h10.0392v10.0392h-10.0392z"/><path d="m451.7647 672.6275h10.0392v10.0392h-10.0392z"/><path d="m622.4314 672.6275h10.0392v10.0392h-10.0392z"/><path d="m712.7843 672.6275h10.0392v10.0392h-10.0392z"/><path d="m381.4902 682.6667h10.0392v10.0392h-10.0392z"/><path d="m441.7255 682.6667h10.0392v10.0392h-10.0392z"/><path d="m461.8039 682.6667h10.0392v10.0392h-10.0392z"/><path d="m592.3137 682.6667h10.0392v10.0392h-10.0392z"/><path d="m702.7451 682.6667h10.0392v10.0392h-10.0392z"/><path d="m341.3333 692.7059h10.0392v10.0392h-10.0392z"/><path d="m431.6863 692.7059h10.0392v10.0392h-10.0392z"/><path d="m471.8431 692.7059h10.0392v10.0392h-10.0392z"/><path d="m481.8824 692.7059h10.0392v10.0392h-10.0392z"/><path d="m582.2745 692.7059h10.0392v10.0392h-10.0392z"/><path d="m592.3137 692.7059h10.0392v10.0392h-10.0392z"/><path d="m612.3922 692.7059h10.0392v10.0392h-10.0392z"/><path d="m712.7843 692.7059h10.0392v10.0392h-10.0392z"/><path d="m220.8627 702.7451h10.0392v10.0392h-10.0392z"/><path d="m240.9412 702.7451h10.0392v10.0392h-10.0392z"/><path d="m250.9804 702.7451h10.0392v10.0392h-10.0392z"/><path d="m281.098 702.7451h10.0392v10.0392h-10.0392z"/><path d="m341.3333 702.7451h10.0392v10.0392h-10.0392z"/><path d="m381.4902 702.7451h10.0392v10.0392h-10.0392z"/><path d="m592.3137 702.7451h10.0392v10.0392h-10.0392z"/><path d="m793.098 702.7451h10.0392v10.0392h-10.0392z"/><path d="m160.6275 712.7843h10.0392v10.0392h-10.0392z"/><path d="m281.098 712.7843h10.0392v10.0392h-10.0392z"/><path d="m321.2549 712.7843h10.0392v10.0392h-10.0392z"/><path d="m331.2941 712.7843h10.0392v10.0392h-10.0392z"/><path d="m351.3725 712.7843h10.0392v10.0392h-10.0392z"/><path d="m361.4118 712.7843h10.0392v10.0392h-10.0392z"/><path d="m371.451 712.7843h10.0392v10.0392h-10.0392z"/><path d="m391.5294 712.7843h10.0392v10.0392h-10.0392z"/><path d="m401.5686 712.7843h10.0392v10.0392h-10.0392z"/><path d="m411.6078 712.7843h10.0392v10.0392h-10.0392z"/><path d="m491.9216 712.7843h10.0392v10.0392h-10.0392z"/><path d="m572.2353 712.7843h10.0392v10.0392h-10.0392z"/><path d="m582.2745 712.7843h10.0392v10.0392h-10.0392z"/><path d="m803.1373 712.7843h10.0392v10.0392h-10.0392z"/><path d="m271.0588 722.8235h10.0392v10.0392h-10.0392z"/><path d="m321.2549 722.8235h10.0392v10.0392h-10.0392z"/><path d="m341.3333 722.8235h10.0392v10.0392h-10.0392z"/><path d="m351.3725 722.8235h10.0392v10.0392h-10.0392z"/><path d="m361.4118 722.8235h10.0392v10.0392h-10.0392z"/><path d="m391.5294 722.8235h10.0392v10.0392h-10.0392z"/><path d="m40.1569 732.8627h10.0392v10.0392h-10.0392z"/><path d="m220.8627 732.8627h10.0392v10.0392h-10.0392z"/><path d="m261.0196 732.8627h10.0392v10.0392h-10.0392z"/><path d="m281.098 732.8627h10.0392v10.0392h-10.0392z"/><path d="m291.1373 732.8627h10.0392v10.0392h-10.0392z"/><path d="m341.3333 732.8627h10.0392v10.0392h-10.0392z"/><path d="m361.4118 732.8627h10.0392v10.0392h-10.0392z"/><path d="m371.451 732.8627h10.0392v10.0392h-10.0392z"/><path d="m391.5294 732.8627h10.0392v10.0392h-10.0392z"/><path d="m441.7255 732.8627h10.0392v10.0392h-10.0392z"/><path d="m682.6667 732.8627h10.0392v10.0392h-10.0392z"/><path d="m261.0196 742.902h10.0392v10.0392h-10.0392z"/><path d="m351.3725 742.902h10.0392v10.0392h-10.0392z"/><path d="m371.451 742.902h10.0392v10.0392h-10.0392z"/><path d="m421.6471 742.902h10.0392v10.0392h-10.0392z"/><path d="m682.6667 742.902h10.0392v10.0392h-10.0392z"/><path d="m692.7059 742.902h10.0392v10.0392h-10.0392z"/><path d="m742.902 742.902h10.0392v10.0392h-10.0392z"/><path d="m311.2157 752.9412h10.0392v10.0392h-10.0392z"/><path d="m321.2549 752.9412h10.0392v10.0392h-10.0392z"/><path d="m501.9608 752.9412h10.0392v10.0392h-10.0392z"/><path d="m532.0784 752.9412h10.0392v10.0392h-10.0392z"/><path d="m612.3922 752.9412h10.0392v10.0392h-10.0392z"/><path d="m642.5098 752.9412h10.0392v10.0392h-10.0392z"/><path d="m652.549 752.9412h10.0392v10.0392h-10.0392z"/><path d="m722.8235 752.9412h10.0392v10.0392h-10.0392z"/><path d="m532.0784 762.9804h10.0392v10.0392h-10.0392z"/><path d="m461.8039 773.0196h10.0392v10.0392h-10.0392z"/><path d="m512 773.0196h10.0392v10.0392h-10.0392z"/><path d="m522.0392 773.0196h10.0392v10.0392h-10.0392z"/><path d="m632.4706 783.0588h10.0392v10.0392h-10.0392z"/><path d="m150.5882 793.098h10.0392v10.0392h-10.0392z"/><path d="m160.6275 793.098h10.0392v10.0392h-10.0392z"/><path d="m491.9216 793.098h10.0392v10.0392h-10.0392z"/><path d="m522.0392 793.098h10.0392v10.0392h-10.0392z"/><path d="m150.5882 803.1373h10.0392v10.0392h-10.0392z"/><path d="m371.451 803.1373h10.0392v10.0392h-10.0392z"/><path d="m471.8431 803.1373h10.0392v10.0392h-10.0392z"/><path d="m562.1961 803.1373h10.0392v10.0392h-10.0392z"/><path d="m622.4314 803.1373h10.0392v10.0392h-10.0392z"/><path d="m301.1765 813.1765h10.0392v10.0392h-10.0392z"/><path d="m371.451 813.1765h10.0392v10.0392h-10.0392z"/><path d="m401.5686 813.1765h10.0392v10.0392h-10.0392z"/><path d="m431.6863 813.1765h10.0392v10.0392h-10.0392z"/><path d="m622.4314 813.1765h10.0392v10.0392h-10.0392z"/><path d="m170.6667 823.2157h10.0392v10.0392h-10.0392z"/><path d="m180.7059 823.2157h10.0392v10.0392h-10.0392z"/><path d="m261.0196 823.2157h10.0392v10.0392h-10.0392z"/><path d="m271.0588 823.2157h10.0392v10.0392h-10.0392z"/><path d="m321.2549 823.2157h10.0392v10.0392h-10.0392z"/><path d="m381.4902 823.2157h10.0392v10.0392h-10.0392z"/><path d="m401.5686 823.2157h10.0392v10.0392h-10.0392z"/><path d="m431.6863 823.2157h10.0392v10.0392h-10.0392z"/><path d="m642.5098 823.2157h10.0392v10.0392h-10.0392z"/><path d="m813.1765 823.2157h10.0392v10.0392h-10.0392z"/><path d="m823.2157 823.2157h10.0392v10.0392h-10.0392z"/><path d="m833.2549 823.2157h10.0392v10.0392h-10.0392z"/><path d="m853.3333 823.2157h10.0392v10.0392h-10.0392z"/><path d="m70.2745 833.2549h10.0392v10.0392h-10.0392z"/><path d="m261.0196 833.2549h10.0392v10.0392h-10.0392z"/><path d="m281.098 833.2549h10.0392v10.0392h-10.0392z"/><path d="m431.6863 833.2549h10.0392v10.0392h-10.0392z"/><path d="m562.1961 833.2549h10.0392v10.0392h-10.0392z"/><path d="m823.2157 833.2549h10.0392v10.0392h-10.0392z"/><path d="m190.7451 843.2941h10.0392v10.0392h-10.0392z"/><path d="m281.098 843.2941h10.0392v10.0392h-10.0392z"/><path d="m321.2549 843.2941h10.0392v10.0392h-10.0392z"/><path d="m431.6863 843.2941h10.0392v10.0392h-10.0392z"/><path d="m240.9412 853.3333h10.0392v10.0392h-10.0392z"/><path d="m261.0196 853.3333h10.0392v10.0392h-10.0392z"/><path d="m321.2549 853.3333h10.0392v10.0392h-10.0392z"/><path d="m331.2941 853.3333h10.0392v10.0392h-10.0392z"/><path d="m411.6078 853.3333h10.0392v10.0392h-10.0392z"/><path d="m341.3333 863.3725h10.0392v10.0392h-10.0392z"/><path d="m371.451 863.3725h10.0392v10.0392h-10.0392z"/><path d="m391.5294 863.3725h10.0392v10.0392h-10.0392z"/><path d="m582.2745 863.3725h10.0392v10.0392h-10.0392z"/><path d="m321.2549 873.4118h10.0392v10.0392h-10.0392z"/><path d="m381.4902 873.4118h10.0392v10.0392h-10.0392z"/><path d="m582.2745 873.4118h10.0392v10.0392h-10.0392z"/><path d="m933.6471 883.451h10.0392v10.0392h-10.0392z"/><path d="m431.6863 933.6471h10.0392v10.0392h-10.0392z"/><path d="m622.4314 943.6863h10.0392v10.0392h-10.0392z"/><path d="m632.4706 943.6863h10.0392v10.0392h-10.0392z"/><path d="m762.9804 943.6863h10.0392v10.0392h-10.0392z"/><path d="m210.8235 953.7255h10.0392v10.0392h-10.0392z"/><path d="m371.451 963.7647h10.0392v10.0392h-10.0392z"/><path d="m712.7843 963.7647h10.0392v10.0392h-10.0392z"/><path d="m512 973.8039h10.0392v10.0392h-10.0392z"/></g></svg>