<svg width="462" height="462" viewBox="0 0 462 462" fill="none"
  xmlns="http://www.w3.org/2000/svg">
  <path id="flower-rotate" d="M231.001 0.725586C247.265 0.725686 262.17 6.54097 273.753 16.2041C284.893 14.111 296.722 14.8882 308.146 19.0459C323.542 24.6498 335.556 35.4337 342.936 48.7129C361.228 47.7114 379.855 54.1979 393.829 68.1719C405.329 79.6724 411.757 94.3242 413.114 109.348C422.471 115.745 430.287 124.658 435.425 135.676C442.349 150.526 443.219 166.646 439.047 181.255C452.69 193.482 461.274 211.238 461.274 231C461.274 247.264 455.458 262.169 445.795 273.752C447.888 284.892 447.113 296.722 442.955 308.146C437.351 323.543 426.566 335.556 413.286 342.936C414.287 361.228 407.803 379.854 393.829 393.828C382.328 405.329 367.676 411.756 352.652 413.113C346.255 422.47 337.343 430.287 326.325 435.425C311.475 442.35 295.353 443.219 280.744 439.047C268.517 452.689 250.762 461.273 231.001 461.273C214.737 461.273 199.831 455.458 188.248 445.795C177.108 447.888 165.279 447.113 153.855 442.955C138.458 437.351 126.442 426.566 119.062 413.285C100.771 414.286 82.1461 407.801 68.1729 393.828C56.6724 382.328 50.2441 367.676 48.8867 352.652C39.5297 346.255 31.7136 337.342 26.5762 326.325C19.6513 311.475 18.7809 295.353 22.9531 280.744C9.31093 268.517 0.726605 250.761 0.726562 231C0.726563 214.736 6.54094 199.83 16.2041 188.247C14.1112 177.108 14.8884 165.278 19.0459 153.855C24.65 138.458 35.434 126.443 48.7139 119.063C47.7128 100.771 54.1992 82.1455 68.1729 68.1719C79.6732 56.6716 94.3244 50.2432 109.348 48.8857C115.745 39.5289 124.659 31.7136 135.676 26.5762C150.526 19.6514 166.647 18.7811 181.256 22.9531C193.483 9.31056 211.239 0.725586 231.001 0.725586Z" fill="#C01D1D"/>
  <path id="flower-center" d="M230.891 147C238.869 147 245.337 153.468 245.337 161.446V205.771L283.329 183.838C290.239 179.849 299.073 182.216 303.063 189.125C307.052 196.034 304.684 204.87 297.775 208.859L259.392 231.019L297.775 253.179C304.684 257.168 307.052 266.004 303.063 272.913C299.074 279.823 290.238 282.189 283.328 278.2L245.337 256.266V300.129C245.337 308.107 238.869 314.575 230.891 314.575C222.913 314.575 216.445 308.107 216.445 300.129V255.814L177.672 278.2C170.763 282.189 161.928 279.822 157.939 272.913C153.95 266.004 156.316 257.168 163.226 253.179L201.608 231.019L163.226 208.859C156.316 204.87 153.949 196.034 157.938 189.125C161.927 182.216 170.763 179.849 177.672 183.838L216.445 206.223V161.446C216.445 153.468 222.913 147 230.891 147Z" fill="white"/>
</svg>
